# xmcd CD database file
# Copyright (C) 1993-1998 Ti Kan
# 
# Track frame offsets:
#     182
#     16862
#     39600
#     61050
#     86287
#     108000
#     128925
#     153280
#     169087
#     186675
#     203925
#     221625
#     246225
#     275700
#     299325
#     312800
# 
# Disc length: 4499 seconds
# 
# Revision: 2
# Processed by: cddbd v1.4PL0 Copyright (c) Steve Scherf et al.
# Submitted via: Gronk 1.4
# 
DISCID=e5119110
DTITLE=Ry Cooder - Try Me!
DYEAR=1900
DGENRE=blues
TTITLE0=Little Sister
TTITLE1=Go Home, Girl
TTITLE2=I Think Is Going To Work Out Fine
TTITLE3=If Walls Could Talk
TTITLE4=Eight Men and Four Women
TTITLE5=Trouble, You Can't Fool Me
TTITLE6=The Girls From Texas
TTITLE7=Christiane Automobile
TTITLE8=Smack Dab In the Middle
TTITLE9=The Good Book
TTITLE10=Why Don't You Try Me?
TTITLE11=The Very Thing That Makes You Rich (Makes Me Poor)
TTITLE12=Crazy 'Bout An Automobile
TTITLE13=Teardrops Will Fall
TTITLE14=634-5789
TTITLE15=Down Hollywood
EXTD=
EXTT0=
EXTT1=
EXTT2=
EXTT3=
EXTT4=
EXTT5=
EXTT6=
EXTT7=
EXTT8=
EXTT9=
EXTT10=
EXTT11=
EXTT12=
EXTT13=
EXTT14=
EXTT15=
PLAYORDER=
